# xmcd
#
# Track frame offsets:
#	183
#	24048
#	39388
#	52415
#	72630
#	86385
#	102918
#	121103
#	133630
#	150958
#	163683
#	177020
#	192280
#	209210
#	226213
#	241943
#	254908
#	265560
#	280135
#	300648
#
# Disc length: 4210 seconds
#
# Revision: 2
# Processed by: cddbd v1.5.2PL0 Copyright (c) Steve Scherf et al.
# Submitted via: dBpowerAMP V4.0
#
DISCID=12107014
DTITLE=Various Artist - Country Collection III CD 2
DYEAR=1900
DGENRE=Country
TTITLE0=Don McLean - Vincent
TTITLE1=Dolly Parton - Make love work
TTITLE2=Dr Hook - A little bit more
TTITLE3=James Taylor - You've got a friend
TTITLE4=Grant and Forsyth - Lady bird
TTITLE5=Roger Whittaker - The last farewell
TTITLE6=Walkers - There's no more corn on the brasos
TTITLE7=Sommerset - The french song
TTITLE8=Lynn Anderson - Close to you
TTITLE9=Bobby Vinton - Blue velvet
TTITLE10=Patti Page - Tennessee waltz
TTITLE11=Anny Schilder - Working girl
TTITLE12=Billy Ray Cyrus - Could've been me
TTITLE13=Wynonna Judd - Tell me why
TTITLE14=Sandra van Reys and Ben Steneker - If i needed you
TTITLE15=Marty Robbins - Devil woman
TTITLE16=Patsy Cline - Honky tonk merry go round
TTITLE17=Carl Jackson and John Starling Harmony Vocals by Emmylou Harris - Don't let our love die
TTITLE18=Billie Jo Spears - Just the way you are
TTITLE19=Kenny Rogers - For the good times
EXTD=
EXTT0=
EXTT1=
EXTT2=
EXTT3=
EXTT4=
EXTT5=
EXTT6=
EXTT7=
EXTT8=
EXTT9=
EXTT10=
EXTT11=
EXTT12=
EXTT13=
EXTT14=
EXTT15=
EXTT16=
EXTT17=
EXTT18=
EXTT19=
PLAYORDER=
